<svg id="Capa_1" enable-background="new 0 0 512 512" height="512" viewBox="0 0 512 512" width="512" xmlns="http://www.w3.org/2000/svg"><g><path d="m292.258 423.861c0-16.683 13.525-30.208 30.208-30.208h65.796c4.696-9.018 7.35-19.269 7.35-30.14v-180.56h-279.22v180.561c0 36.094 29.26 65.353 65.353 65.353h115.52c-2.766 0-5.007-2.241-5.007-5.006z" fill="#f6f9f9"/><path d="m355.611 182.953v92.17c0 73.864-59.879 133.743-133.743 133.743h-87.178c11.887 12.33 28.575 20 47.055 20h115.519c-2.765 0-5.006-2.241-5.006-5.006 0-16.683 13.525-30.208 30.208-30.208h65.796c4.696-9.018 7.35-19.269 7.35-30.14v-180.559z" fill="#e7ecf1"/><path d="m498.037 428.867h-484.072l11.992 20.864c9.16 15.938 26.141 25.765 44.525 25.765h371.038c18.383 0 35.364-9.826 44.525-25.765z" fill="#f6f9f9"/><path d="m446.542 428.867-.497.864c-9.16 15.938-26.142 25.765-44.525 25.765h-371.039c-.226 0-.451-.002-.676-.005 9.641 12.512 24.624 20.005 40.676 20.005h371.039c18.383 0 35.364-9.826 44.525-25.765l11.991-20.864z" fill="#e7ecf1"/><path d="m419.415 504.5h-326.828c-5.673 0-10.811-3.351-13.097-8.543l-9.009-20.461h371.039l-9.009 20.461c-2.286 5.192-7.423 8.543-13.096 8.543z" fill="#f6f9f9"/><path d="m88.408 316.93c-19.573 0-35.439-15.867-35.439-35.439v-34.385c0-.582.472-1.054 1.054-1.054h62.368v-29.004h-89.813c-1.443 0-2.613 1.17-2.613 2.613v61.831c0 35.591 28.852 64.443 64.443 64.443h27.982v-29.005z" fill="#e7ecf1"/><path d="m417.901 393.653h-95.436c-16.683 0-30.208 13.524-30.208 30.208 0 2.765 2.241 5.006 5.006 5.006h145.84c2.765 0 5.006-2.241 5.006-5.006 0-16.683-13.525-30.208-30.208-30.208z" fill="#c67d66"/><path d="m322.358 354.289-89.701 32.583c-15.681 5.696-23.775 23.025-18.079 38.706.944 2.598 3.815 3.94 6.414 2.996l137.077-49.791c2.598-.944 3.94-3.815 2.996-6.414-5.697-15.682-23.026-23.776-38.707-18.08z" fill="#d09080"/><path d="m116.391 217.048h279.22v40h-279.22z" fill="#eab1b7"/><path d="m355.611 217.048h40v40h-40z" fill="#e4989d"/><path d="m172.201 112.405h72.226c5.326 0 9.644 4.318 9.644 9.644v60.904h39.582v-64.612c0-21.921-17.77-39.691-39.691-39.691h-32.009 6.016c10.001 0 18.108-8.107 18.108-18.108 0-10.001-8.107-18.108-18.108-18.108h-6.016 53.813c9.472 0 17.538-7.365 17.875-16.831.353-9.937-7.598-18.104-17.456-18.104h-134.64c-9.471 0-17.538 7.365-17.875 16.83-.354 9.937 7.598 18.105 17.456 18.105h-23.904c-10.001 0-18.108 8.107-18.108 18.108 0 10.001 8.107 18.108 18.108 18.108h62.699-7.721c-9.321 0-16.877 7.556-16.877 16.877.001 9.322 7.557 16.878 16.878 16.878z" fill="#f1ddd5"/><path d="m270.193 82.111c2.223 4.955 3.46 10.448 3.46 16.231v45.973c0 10.294-8.345 18.639-18.639 18.639h-.943v20h39.582v-64.612c0-16.139-9.632-30.027-23.46-36.231z" fill="#e7c6bc"/><path d="m19.454 453.469c9.634 16.763 26.964 27.681 46.04 29.314l7.132 16.196c3.484 7.91 11.319 13.021 19.961 13.021h326.828c8.643 0 16.478-5.111 19.961-13.021l7.131-16.196c19.076-1.633 36.406-12.551 46.04-29.314l11.993-20.865c2.863-4.984-.73-11.237-6.503-11.237h-42.511c-1.288-19.634-17.671-35.213-37.625-35.213h-18.391c2.371-7.28 3.601-14.946 3.601-22.64v-180.561c0-4.142-3.357-7.5-7.5-7.5h-94.458v-17.137c0-4.142-3.357-7.5-7.5-7.5s-7.5 3.358-7.5 7.5v17.137h-24.582v-53.404c0-9.454-7.691-17.145-17.145-17.145h-72.226c-5.171 0-9.377-4.207-9.377-9.377s4.207-9.377 9.377-9.377h7.721c4.142 0 7.5-3.358 7.5-7.5s-3.358-7.5-7.5-7.5h-62.699c-5.849 0-10.607-4.759-10.607-10.608s4.758-10.608 10.607-10.608h23.904c4.142 0 7.5-3.358 7.5-7.5s-3.358-7.5-7.5-7.5c-5.603 0-10.164-4.627-9.961-10.338.188-5.292 4.845-9.597 10.38-9.597h134.64c5.615 0 10.164 4.638 9.961 10.338-.188 5.292-4.845 9.597-10.38 9.597h-53.813c-4.142 0-7.5 3.358-7.5 7.5s3.358 7.5 7.5 7.5h6.016c5.849 0 10.607 4.759 10.607 10.608s-4.758 10.608-10.607 10.608h-6.016c-4.142 0-7.5 3.358-7.5 7.5s3.358 7.5 7.5 7.5h32.009c17.751 0 32.191 14.44 32.191 32.19v4.975c0 4.142 3.357 7.5 7.5 7.5s7.5-3.358 7.5-7.5v-4.975c0-26.021-21.17-47.19-47.191-47.19h-2.687c3.07-6.717 3.071-14.496 0-21.216h24.491c13.746 0 24.89-10.57 25.37-24.064.503-14.14-10.78-25.87-24.951-25.87h-134.64c-13.747 0-24.891 10.57-25.37 24.064-.136 3.805.571 7.497 2.042 10.871h-.995c-14.12 0-25.607 11.488-25.607 25.608s11.487 25.608 25.607 25.608h32.477c-6.67 15.943 5.078 33.754 22.502 33.754h72.226c1.183 0 2.145.962 2.145 2.145v53.404h-130.181c-4.142 0-7.5 3.358-7.5 7.5v26.595h-82.313c-5.576 0-10.113 4.537-10.113 10.113v61.831c0 39.67 32.273 71.943 71.943 71.943h20.482v10.079c0 23.55 11.233 44.527 28.621 57.853h-123.546c-5.748 0-9.38 6.232-6.502 11.237zm421.019-32.102h-140.58c1.246-11.352 10.894-20.213 22.572-20.213h95.436c11.678-.001 21.325 8.861 22.572 20.213zm-177.675 0 23.619-8.579c-.844 2.741-1.383 5.614-1.577 8.579zm62.121-60.029c10.978-3.986 23.07 1.048 28.117 11.293l-132.133 47.995c-2.705-11.095 3.338-22.718 14.314-26.705zm63.192-170.885v19.095h-264.22v-19.095zm-279.22 118.977h-20.482c-15.406 0-27.939-12.534-27.939-27.939v-27.938h48.421zm-20.482 29.005c-31.399 0-56.943-25.545-56.943-56.943v-56.943h77.425v14.004h-54.868c-4.717 0-8.554 3.837-8.554 8.554v34.384c0 23.677 19.263 42.939 42.939 42.939h20.482v14.004h-20.481zm35.482 25.079c0-21.656 0-90.6 0-98.966h25.784c4.142 0 7.5-3.358 7.5-7.5s-3.358-7.5-7.5-7.5h-25.784c0-6.233 0-18.514 0-25h264.221v25h-203.438c-4.142 0-7.5 3.358-7.5 7.5s3.358 7.5 7.5 7.5h203.437v98.966c0 7.906-1.543 15.502-4.593 22.64h-23.776l.886-.322c6.48-2.354 9.839-9.542 7.484-16.024-7.099-19.542-28.771-29.667-48.315-22.568l-89.701 32.583c-17.305 6.286-27.225 24.001-24.34 41.545h-24.012c-31.9-.001-57.853-25.954-57.853-57.854zm361.185 72.853-5.534 9.627c-7.407 12.887-21.197 21.783-38.113 22.002h-27.973c-4.143 0-7.5 3.358-7.5 7.5s3.357 7.5 7.5 7.5h16.567l-4.376 9.938c-1.087 2.47-3.534 4.066-6.232 4.066h-326.828c-2.699 0-5.145-1.596-6.232-4.066l-4.376-9.938h296.477c4.143 0 7.5-3.358 7.5-7.5s-3.357-7.5-7.5-7.5c-68.759 0-307.992-.002-308.106 0-15.603-.047-30.113-8.468-37.891-22.001l-5.533-9.627c254.66-.001-91.15-.001 458.15-.001z"/></g></svg>
